HIERARCHY
ROOT Hips
{
	OFFSET 0.00000 0.00000 0.00000
	CHANNELS 6 Xposition Yposition Zposition Zrotation Yrotation Xrotation 
	JOINT LHipJoint
	{
		OFFSET 0 0 0
		CHANNELS 3 Zrotation Yrotation Xrotation
		JOINT LeftUpLeg
		{
			OFFSET 1.55766 -1.60504 1.11378
			CHANNELS 3 Zrotation Yrotation Xrotation
			JOINT LeftLeg
			{
				OFFSET 2.29047 -6.29302 0.00000
				CHANNELS 3 Zrotation Yrotation Xrotation
				JOINT LeftFoot
				{
					OFFSET 2.52265 -6.93093 0.00000
					CHANNELS 3 Zrotation Yrotation Xrotation
					JOINT LeftToeBase
					{
						OFFSET 0.17633 -0.48446 2.02656
						CHANNELS 3 Zrotation Yrotation Xrotation
						End Site
						{
							OFFSET 0.00000 -0.00000 1.04989
						}
					}
				}
			}
		}
	}
	JOINT RHipJoint
	{
		OFFSET 0 0 0
		CHANNELS 3 Zrotation Yrotation Xrotation
		JOINT RightUpLeg
		{
			OFFSET -1.48599 -1.60504 1.11378
			CHANNELS 3 Zrotation Yrotation Xrotation
			JOINT RightLeg
			{
				OFFSET -2.27280 -6.24448 0.00000
				CHANNELS 3 Zrotation Yrotation Xrotation
				JOINT RightFoot
				{
					OFFSET -2.50834 -6.89161 0.00000
					CHANNELS 3 Zrotation Yrotation Xrotation
					JOINT RightToeBase
					{
						OFFSET -0.26967 -0.74090 2.08741
						CHANNELS 3 Zrotation Yrotation Xrotation
						End Site
						{
							OFFSET -0.00000 -0.00000 1.10614
						}
					}
				}
			}
		}
	}
	JOINT LowerBack
	{
		OFFSET 0 0 0
		CHANNELS 3 Zrotation Yrotation Xrotation
		JOINT Spine
		{
			OFFSET 0.06481 2.02437 -0.08472
			CHANNELS 3 Zrotation Yrotation Xrotation
			JOINT Spine1
			{
				OFFSET 0.00015 1.96711 0.18069
				CHANNELS 3 Zrotation Yrotation Xrotation
				JOINT Neck
				{
					OFFSET 0 0 0
					CHANNELS 3 Zrotation Yrotation Xrotation
					JOINT Neck1
					{
						OFFSET -0.29961 1.68293 -0.13041
						CHANNELS 3 Zrotation Yrotation Xrotation
						JOINT Head
						{
							OFFSET 0.59697 1.61501 -0.14669
							CHANNELS 3 Zrotation Yrotation Xrotation
							End Site
							{
								OFFSET 0.22973 1.74906 -0.10148
							}
						}
					}
				}
				JOINT LeftShoulder
				{
					OFFSET 0 0 0
					CHANNELS 3 Zrotation Yrotation Xrotation
					JOINT LeftArm
					{
						OFFSET 3.37968 1.02893 0.31147
						CHANNELS 3 Zrotation Yrotation Xrotation
						JOINT LeftForeArm
						{
							OFFSET 5.19807 -0.00000 -0.00000
							CHANNELS 3 Zrotation Yrotation Xrotation
							JOINT LeftHand
							{
								OFFSET 3.09370 -0.00000 -0.00000
								CHANNELS 3 Zrotation Yrotation Xrotation
								JOINT LeftFingerBase
								{
									OFFSET 0 0 0
									CHANNELS 3 Zrotation Yrotation Xrotation
									JOINT LeftHandIndex1
									{
										OFFSET 0.67263 -0.00000 -0.00000
										CHANNELS 3 Zrotation Yrotation Xrotation
										End Site
										{
											OFFSET 0.54229 -0.00000 -0.00000
										}
									}
								}
								JOINT LThumb
								{
									OFFSET 0 0 0
									CHANNELS 3 Zrotation Yrotation Xrotation
									End Site
									{
										OFFSET 0.55057 -0.00000 0.55057
									}
								}
							}
						}
					}
				}
				JOINT RightShoulder
				{
					OFFSET 0 0 0
					CHANNELS 3 Zrotation Yrotation Xrotation
					JOINT RightArm
					{
						OFFSET -3.38254 0.96355 -0.16120
						CHANNELS 3 Zrotation Yrotation Xrotation
						JOINT RightForeArm
						{
							OFFSET -5.45222 -0.00000 -0.00000
							CHANNELS 3 Zrotation Yrotation Xrotation
							JOINT RightHand
							{
								OFFSET -3.01284 -0.00000 -0.00000
								CHANNELS 3 Zrotation Yrotation Xrotation
								JOINT RightFingerBase
								{
									OFFSET 0 0 0
									CHANNELS 3 Zrotation Yrotation Xrotation
									JOINT RightHandIndex1
									{
										OFFSET -0.62230 -0.00000 -0.00000
										CHANNELS 3 Zrotation Yrotation Xrotation
										End Site
										{
											OFFSET -0.50171 -0.00000 -0.00000
										}
									}
								}
								JOINT RThumb
								{
									OFFSET 0 0 0
									CHANNELS 3 Zrotation Yrotation Xrotation
									End Site
									{
										OFFSET -0.50937 -0.00000 0.50937
									}
								}
							}
						}
					}
				}
			}
		}
	}
}
MOTION
Frames: 10
Frame Time: 0.0217391
0.00 0.00 0.00 -347.2030 -129.3330 357.1290 0.0000 0.0000 0.0000 18.6026 -10.2500 -41.3742 4.2781 12.5216 37.6031 1.3574 13.3887 21.5098 0.0098 0.6385 1.7545 0.0000 0.0000 0.0000 28.5468 1.0595 -14.5275 -3.4086 -11.3288 33.3969 -1.4254 20.6783 -24.1649 -0.7003 5.3491 -14.9071 10.3673 -0.8307 1.7756 1.7530 -0.7116 -5.2831 -3.8823 -0.9370 -6.6937 -27.5492 -0.9872 2.2731 34.7877 -6.2607 11.4273 17.7616 -3.8683 4.7073 -0.0000 -0.0000 0.0000 -83.6848 10.8372 50.4221 38.5500 -47.1870 -17.3679 -0.0000 0.0000 -46.5297 24.7135 -22.8387 -10.1282 -7.1250 0.0000 -0.0000 -2.6748 5.1295 2.4276 -0.0000 -0.0000 0.0000 72.7918 -27.8555 57.3216 -134.5175 51.0027 -97.3869 0.0000 -0.0000 -17.3669 -13.0204 -14.1838 3.2430 7.1250 -0.0000 -0.0000 13.2550 -44.1121 0.2959
0.00 0.00 0.00 -348.9840 -139.7440 360.0210 0.0000 0.0000 0.0000 15.6071 -6.4190 -34.9409 4.6815 13.0159 39.4281 -0.5214 17.6916 6.7319 1.3544 -7.3672 -20.8078 0.0000 0.0000 0.0000 25.8706 6.3851 -15.1073 -3.8888 -12.0109 35.7705 -0.8472 26.2179 -23.4801 -0.5904 4.9195 -13.6790 12.3080 -2.6183 1.4650 2.7576 -3.1343 -4.3601 -3.7174 -2.1470 -5.9536 -26.1807 1.1826 -4.3292 33.3151 -1.5852 13.8522 16.9539 -0.9168 4.9334 0.0000 0.0000 0.0000 -85.2594 9.1071 54.4005 41.4595 -48.9112 -19.5322 -0.0000 0.0000 -46.0017 23.8265 -23.5654 -10.0125 -7.1250 0.0000 -0.0000 -3.3084 4.5241 3.0423 0.0000 0.0000 0.0000 68.4727 -36.7349 50.2330 -145.8361 44.2058 -105.7728 0.0000 -0.0000 -19.3503 -11.2624 -14.0810 2.7738 7.1250 -0.0000 -0.0000 14.7884 -43.8170 0.4420
0.00 0.00 0.00 -362.3310 -126.4320 370.8720 0.0000 0.0000 0.0000 -20.8944 -2.9222 -34.3527 8.2516 16.3012 53.4638 2.7360 -1.4550 -30.9483 0.7728 -5.6133 -15.6664 0.0000 0.0000 0.0000 0.7485 21.5417 -30.9515 -17.5195 -19.8518 82.7302 0.4977 12.4325 5.7572 -1.5868 7.9464 -22.5515 2.3288 -3.0264 0.7895 0.6508 -4.0751 -5.0741 -0.3766 -2.1745 -5.8138 -31.9867 -1.0294 7.3142 35.0482 -5.8658 4.3723 18.7235 -4.0226 1.8873 0.0000 -0.0000 0.0000 -86.3147 9.8655 64.3168 85.6837 -59.9295 -56.2629 -0.0000 0.0000 -43.3374 15.7255 -22.4343 -6.1331 -7.1250 0.0000 -0.0000 -8.2630 6.9639 7.2783 0.0000 -0.0000 0.0000 78.4767 -44.3421 39.2276 -159.2730 31.5083 -114.0934 0.0000 -0.0000 -15.3244 -15.5938 -9.4808 2.6321 7.1250 -0.0000 -0.0000 9.9082 -39.6270 1.3272
0.00 0.00 0.00 -410.9600 -88.6037 415.7090 0.0000 0.0000 0.0000 -22.4432 -17.7998 -9.8609 7.0829 15.4013 49.1873 3.7580 -15.4444 -35.2828 0.8281 -5.8059 -16.2222 0.0000 0.0000 0.0000 7.8982 24.5224 -58.7062 -13.7982 -19.0517 71.5873 0.4364 13.2494 -1.9497 -2.1128 9.0972 -26.0998 -3.0619 -6.2891 3.3690 3.5312 -8.5143 -4.3350 6.0063 -4.0556 -5.4127 -35.7249 -2.8766 21.4712 37.6134 -11.7303 -6.2700 21.5812 -8.0267 -0.6822 0.0000 0.0000 0.0000 -88.6360 20.1676 58.1594 104.8391 -59.1514 -72.8144 -0.0000 0.0000 -41.0395 11.5926 -18.8507 -3.7920 -7.1250 0.0000 -0.0000 -10.7858 11.0250 8.6833 0.0000 0.0000 0.0000 86.5871 -27.5185 36.1624 -161.7111 28.5255 -115.3136 0.0000 -0.0000 -8.9493 -15.7087 1.6252 -0.4570 7.1250 -0.0000 -0.0000 8.4019 -28.2542 3.4577
0.00 0.00 0.00 -369.4700 -71.6655 374.1570 0.0000 0.0000 0.0000 -19.3407 -25.3004 -3.0918 6.8667 15.2186 48.3685 3.1592 -23.7276 -33.9633 0.2148 -2.9838 -8.2335 0.0000 0.0000 0.0000 2.0590 22.0557 -56.8144 -8.1705 -16.2432 53.1744 0.5663 13.4304 2.2799 -1.8863 8.6250 -24.6292 -3.6935 -6.2408 3.3284 4.6686 -8.4536 -4.7069 7.5695 -3.9738 -5.5375 -35.0159 -5.1423 29.4020 39.6035 -16.3401 -13.0833 23.9482 -11.0272 -1.7592 -0.0000 0.0000 0.0000 -87.4168 22.2556 61.1855 107.0151 -58.8773 -74.6799 -0.0000 0.0000 -39.8463 10.7090 -18.5995 -3.4518 -7.1250 0.0000 -0.0000 -11.3572 11.3545 9.0837 -0.0000 0.0000 0.0000 85.7910 -13.3090 33.4637 -160.6761 29.8192 -114.8091 0.0000 0.0000 0.3327 -10.8336 0.8670 -0.1659 7.1250 -0.0000 -0.0000 12.2234 -28.9974 4.8667
0.00 0.00 0.00 -365.1550 -30.3161 366.6810 0.0000 0.0000 0.0000 -2.5860 -36.8257 0.5297 8.7409 16.6381 55.1899 0.9961 -27.4440 -24.9468 4.9875 -13.3698 -40.7689 0.0000 0.0000 0.0000 5.6901 1.0633 -43.6737 -11.1224 -17.9944 63.1783 -0.9826 14.1672 -18.9841 -2.8269 10.4094 -30.3131 0.1565 2.6032 6.8547 -1.0303 3.4203 -4.8259 -1.6700 1.6155 -8.8777 -23.7774 -20.2435 45.3990 48.4043 -32.2783 -28.6724 25.3217 -22.2261 -1.3900 0.0000 0.0000 0.0000 -70.0473 42.3462 48.3257 130.4337 -52.8191 -94.1718 -0.0000 0.0000 -46.9722 18.4958 -23.7748 -7.6804 -7.1250 0.0000 -0.0000 -6.6272 5.2053 6.0400 0.0000 0.0000 0.0000 10.1637 43.2185 -78.1246 -12.5262 20.5891 -2.2840 0.0000 0.0000 16.1765 -34.1722 -12.4113 8.3016 7.1250 -0.0000 -0.0000 -6.4479 -44.7778 -0.0355
0.00 0.00 0.00 -363.2180 -19.2303 368.8530 0.0000 0.0000 0.0000 7.7743 -35.0481 -5.2109 5.5769 14.0054 43.2590 -1.5934 -31.5010 -13.0892 5.3788 -13.7981 -42.4346 0.0000 0.0000 0.0000 10.7167 -4.5581 -41.7596 -10.3150 -17.5832 60.5361 -1.8089 9.7004 -24.1349 -2.3038 9.4721 -27.2835 -0.5593 1.9800 3.4966 -1.7078 2.5110 -4.2558 -1.6883 1.2197 -6.3314 -24.8787 -18.8430 42.5439 49.3768 -30.7884 -26.9861 26.0479 -21.4794 -0.5680 -0.0000 0.0000 0.0000 -83.3290 43.9458 31.4526 121.6698 -55.8483 -87.0446 -0.0000 0.0000 -47.3209 20.0994 -24.5181 -8.6348 -7.1250 0.0000 -0.0000 -5.7038 4.1846 5.2992 -0.0000 0.0000 0.0000 23.8487 25.8262 -53.5133 -20.4107 31.1340 -5.7422 0.0000 0.0000 4.5167 -27.8452 -10.0372 5.2602 7.1250 -0.0000 -0.0000 -0.7435 -41.2981 -0.0679
0.00 0.00 0.00 -364.6630 -26.4798 368.4340 0.0000 0.0000 0.0000 4.3045 -32.0151 -2.5592 6.3727 14.7800 46.4597 -0.9809 -31.4383 -16.8680 5.2873 -13.7002 -42.0497 0.0000 0.0000 0.0000 9.7902 -1.2745 -41.4693 -9.9431 -17.3777 59.2980 -1.3184 13.6424 -21.2930 -2.3783 9.6131 -27.7328 0.2931 2.1897 3.3535 -1.6314 2.8480 -4.3793 -2.1112 1.3465 -6.3341 -25.3529 -17.3019 42.0095 49.1727 -29.6336 -24.6508 26.5310 -20.8321 -0.3131 0.0000 0.0000 0.0000 -83.9358 37.4025 34.6898 111.0456 -58.2584 -78.1194 -0.0000 0.0000 -44.7803 21.3072 -24.2890 -9.1145 -7.1250 0.0000 -0.0000 -4.9394 4.2169 4.5802 0.0000 0.0000 0.0000 38.3046 21.4265 -23.6080 -35.7552 45.3439 -15.3481 0.0000 -0.0000 -0.3226 -32.0870 -12.5952 7.7852 7.1250 -0.0000 -0.0000 -4.4790 -44.7069 -0.0325
0.00 0.00 0.00 -366.2360 -33.9512 368.5980 0.0000 0.0000 0.0000 0.4366 -28.7643 -0.6635 7.0003 15.3322 48.8756 -0.2004 -31.4242 -21.2346 5.6866 -14.1176 -43.7107 0.0000 0.0000 0.0000 8.0981 3.2785 -40.8614 -9.0203 -16.8208 56.1602 -0.6950 16.0116 -17.4378 -2.6754 10.1500 -29.4639 1.2088 1.9045 2.7553 -1.3551 2.5339 -4.1020 -2.2749 1.1658 -5.6817 -26.1613 -15.7918 39.3506 48.7743 -28.2996 -22.3464 26.3750 -19.8565 0.1846 0.0000 0.0000 0.0000 -85.2416 30.6897 37.3929 100.1779 -59.6049 -68.8026 -0.0000 0.0000 -43.1146 22.5635 -22.6172 -9.0788 -7.1250 0.0000 -0.0000 -3.9917 5.7474 3.5808 0.0000 0.0000 0.0000 55.4987 12.8270 3.3468 -52.4117 53.9230 -28.1119 0.0000 0.0000 0.9553 -30.1477 -8.8917 5.1298 7.1250 -0.0000 -0.0000 -2.8471 -40.2189 -0.3359
0.00 0.00 0.00 -364.8380 -46.7626 368.5230 0.0000 0.0000 0.0000 -8.7322 -17.9858 -0.5508 5.6922 14.1233 43.7335 0.9917 -30.5327 -26.6526 3.9298 -12.0664 -35.9673 0.0000 0.0000 0.0000 -0.0515 12.8869 -40.5466 -5.5548 -13.9826 43.1676 0.5075 14.7665 -2.9737 -3.7575 11.8305 -35.1349 -0.1200 1.1151 2.6279 -0.9355 1.4230 -3.7678 -1.0036 0.6823 -5.3491 -27.9554 -13.8710 34.0276 48.2943 -26.4353 -19.3965 25.9447 -18.3321 1.2473 -0.0000 -0.0000 0.0000 -83.7846 17.8719 47.1962 82.2437 -59.7715 -53.2880 -0.0000 0.0000 -37.9292 20.7600 -23.6845 -8.6580 -7.1250 0.0000 -0.0000 -5.2178 4.9371 4.7696 -0.0000 -0.0000 0.0000 84.1020 -9.6952 18.1851 -43.6808 50.1056 -21.2217 0.0000 0.0000 8.1469 -23.5986 -4.0955 1.7870 7.1250 -0.0000 -0.0000 2.5091 -34.4392 0.6509
